<svg xmlns="http://www.w3.org/2000/svg" viewBox="0 0 800 900" role="img" aria-label="Business development consultant illustration with Kenyan-inspired skyline">
  <defs>
    <linearGradient id="bg1" x1="0%" y1="0%" x2="100%" y2="100%">
      <stop offset="0%" stop-color="#173f35"/>
      <stop offset="100%" stop-color="#1e7668"/>
    </linearGradient>
    <linearGradient id="gold" x1="0%" y1="0%" x2="100%" y2="100%">
      <stop offset="0%" stop-color="#f3d98b"/>
      <stop offset="100%" stop-color="#c6a15b"/>
    </linearGradient>
  </defs>
  <rect width="800" height="900" rx="40" fill="url(#bg1)"/>
  <circle cx="640" cy="180" r="110" fill="#f3d98b" opacity="0.18"/>
  <path d="M120 760 C 190 620, 240 560, 320 560 C 420 560, 480 680, 620 690 L 620 820 L 120 820 Z" fill="#0d2a25" opacity="0.85"/>
  <path d="M170 760 L 170 500 L 270 500 L 270 760 Z" fill="#f7efd7" opacity="0.95"/>
  <path d="M270 760 L 270 420 L 390 420 L 390 760 Z" fill="#f2dbab" opacity="0.95"/>
  <path d="M390 760 L 390 370 L 520 370 L 520 760 Z" fill="#f7efd7" opacity="0.95"/>
  <path d="M520 760 L 520 470 L 620 470 L 620 760 Z" fill="#f2dbab" opacity="0.95"/>
  <rect x="180" y="540" width="70" height="80" rx="8" fill="#173f35"/>
  <rect x="290" y="460" width="80" height="120" rx="8" fill="#173f35"/>
  <rect x="410" y="420" width="90" height="150" rx="8" fill="#173f35"/>
  <rect x="535" y="500" width="60" height="120" rx="8" fill="#173f35"/>
  <path d="M290 390 C 300 340, 360 300, 420 330 C 460 350, 500 390, 510 440" stroke="#f3d98b" stroke-width="18" fill="none" stroke-linecap="round"/>
  <circle cx="330" cy="330" r="48" fill="#f2c18d"/>
  <circle cx="470" cy="295" r="42" fill="#f2c18d"/>
  <path d="M305 330 C 310 250, 360 220, 414 238 C 456 252, 470 296, 470 296" stroke="#173f35" stroke-width="22" fill="none" stroke-linecap="round"/>
  <path d="M255 332 L 220 270" stroke="#173f35" stroke-width="18" stroke-linecap="round"/>
  <path d="M280 290 L 240 220" stroke="#173f35" stroke-width="16" stroke-linecap="round"/>
  <path d="M418 286 L 460 208" stroke="#173f35" stroke-width="16" stroke-linecap="round"/>
  <path d="M392 290 L 438 220" stroke="#173f35" stroke-width="16" stroke-linecap="round"/>
  <path d="M214 330 C 230 280, 250 250, 286 230" stroke="#173f35" stroke-width="10" fill="none" stroke-linecap="round"/>
  <rect x="190" y="180" width="140" height="70" rx="16" fill="#f3d98b"/>
  <path d="M220 250 L 220 380" stroke="#173f35" stroke-width="16" stroke-linecap="round"/>
  <path d="M280 250 L 280 380" stroke="#173f35" stroke-width="16" stroke-linecap="round"/>
  <path d="M205 290 C 220 250, 260 215, 320 220" stroke="#173f35" stroke-width="12" fill="none" stroke-linecap="round"/>
  <path d="M180 640 L 260 600" stroke="#f3d98b" stroke-width="16" stroke-linecap="round"/>
  <path d="M400 620 L 520 580" stroke="#f3d98b" stroke-width="16" stroke-linecap="round"/>
  <path d="M320 610 C 350 590, 370 590, 400 610" stroke="#f3d98b" stroke-width="14" fill="none" stroke-linecap="round"/>
  <path d="M240 700 C 300 640, 340 660, 370 700" stroke="#f3d98b" stroke-width="12" fill="none" stroke-linecap="round"/>
  <circle cx="602" cy="255" r="42" fill="#f7efd7" opacity="0.85"/>
  <path d="M570 256 C 590 225, 630 225, 650 256" stroke="#173f35" stroke-width="10" fill="none" stroke-linecap="round"/>
  <path d="M592 264 L 620 320" stroke="#173f35" stroke-width="10" stroke-linecap="round"/>
  <path d="M570 312 L 610 335" stroke="#173f35" stroke-width="10" stroke-linecap="round"/>
</svg>