<svg xmlns="http://www.w3.org/2000/svg" viewBox="0 0 800 900" role="img" aria-label="Operations consultant illustration with Kenyan-inspired office and process elements">
  <defs>
    <linearGradient id="bg2" x1="0%" y1="0%" x2="100%" y2="100%">
      <stop offset="0%" stop-color="#f5edc5"/>
      <stop offset="100%" stop-color="#c6a15b"/>
    </linearGradient>
  </defs>
  <rect width="800" height="900" rx="40" fill="url(#bg2)"/>
  <rect x="80" y="110" width="640" height="660" rx="36" fill="#fefcf6" opacity="0.94"/>
  <path d="M140 260 L 660 260" stroke="#173f35" stroke-width="12" stroke-linecap="round" opacity="0.22"/>
  <path d="M140 360 L 660 360" stroke="#173f35" stroke-width="12" stroke-linecap="round" opacity="0.22"/>
  <path d="M140 460 L 660 460" stroke="#173f35" stroke-width="12" stroke-linecap="round" opacity="0.22"/>
  <path d="M140 560 L 660 560" stroke="#173f35" stroke-width="12" stroke-linecap="round" opacity="0.22"/>
  <path d="M170 680 L 630 680" stroke="#173f35" stroke-width="14" stroke-linecap="round" opacity="0.22"/>
  <rect x="160" y="170" width="180" height="160" rx="18" fill="#173f35"/>
  <rect x="380" y="180" width="220" height="150" rx="18" fill="#1e7668"/>
  <rect x="200" y="360" width="180" height="180" rx="18" fill="#f2DBAB"/>
  <rect x="420" y="360" width="180" height="180" rx="18" fill="#f2DBAB"/>
  <rect x="250" y="580" width="260" height="90" rx="18" fill="#173f35"/>
  <circle cx="240" cy="220" r="28" fill="#f5edc5"/>
  <circle cx="470" cy="240" r="26" fill="#f5edc5"/>
  <path d="M160 220 L 120 170" stroke="#173f35" stroke-width="12" stroke-linecap="round"/>
  <path d="M640 240 L 690 190" stroke="#173f35" stroke-width="12" stroke-linecap="round"/>
  <path d="M330 280 C 390 250, 440 246, 487 280" stroke="#f5edc5" stroke-width="18" fill="none" stroke-linecap="round"/>
  <path d="M280 360 C 320 330, 360 332, 410 360" stroke="#173f35" stroke-width="14" fill="none" stroke-linecap="round"/>
  <path d="M294 435 C 324 405, 350 405, 380 435" stroke="#173f35" stroke-width="12" fill="none" stroke-linecap="round"/>
  <circle cx="260" cy="620" r="34" fill="#f5edc5"/>
  <circle cx="520" cy="620" r="34" fill="#f5edc5"/>
  <path d="M260 620 L 240 700" stroke="#f5edc5" stroke-width="12" stroke-linecap="round"/>
  <path d="M520 620 L 540 700" stroke="#f5edc5" stroke-width="12" stroke-linecap="round"/>
  <path d="M190 770 C 260 730, 320 730, 400 770" stroke="#173f35" stroke-width="14" fill="none" stroke-linecap="round" opacity="0.9"/>
  <path d="M220 180 L 250 120" stroke="#173f35" stroke-width="10" stroke-linecap="round"/>
  <path d="M290 180 L 315 120" stroke="#173f35" stroke-width="10" stroke-linecap="round"/>
  <path d="M590 182 L 627 118" stroke="#173f35" stroke-width="10" stroke-linecap="round"/>
  <path d="M510 210 L 540 115" stroke="#173f35" stroke-width="10" stroke-linecap="round"/>
  <path d="M80 720 C 160 650, 230 620, 290 610" stroke="#173f35" stroke-width="16" fill="none" stroke-linecap="round" opacity="0.16"/>
  <path d="M520 610 C 600 620, 650 650, 720 720" stroke="#173f35" stroke-width="16" fill="none" stroke-linecap="round" opacity="0.16"/>
</svg>